0 BrickStudio Model
0 Name: model.ldr
0 Author: BrickStudio
0 !LDRAW_ORG Unofficial_Model
1 2 0 -8 0 1 0 0 0 1 0 0 0 1 41539.dat
1 4 -20 -32 -30 1 0 0 0 1 0 0 0 1 3001.dat
1 4 20 -56 -30 1 0 0 0 1 0 0 0 1 3001.dat
1 4 -20 -32 30 1 0 0 0 1 0 0 0 1 3001.dat
1 4 20 -56 30 1 0 0 0 1 0 0 0 1 3001.dat
1 4 -20 -80 -30 1 0 0 0 1 0 0 0 1 3001.dat
1 4 20 -104 -30 1 0 0 0 1 0 0 0 1 3001.dat
1 4 -20 -80 30 1 0 0 0 1 0 0 0 1 3001.dat
1 4 20 -104 30 1 0 0 0 1 0 0 0 1 3001.dat
1 15 -20 -112 0 0 0 -1 0 1 0 1 0 0 87079.dat
1 15 20 -112 0 0 0 -1 0 1 0 1 0 0 87079.dat
1 1 -20 -136 0 0 0 -1 0 1 0 1 0 0 3037.dat
1 1 20 -136 0 0 0 -1 0 1 0 1 0 0 3037.dat
1 14 70 -32 -70 1 0 0 0 1 0 0 0 1 3062b.dat
1 36 70 -56 -70 1 0 0 0 1 0 0 0 1 4589.dat
0
